<svg width="192" height="61" viewBox="0 0 192 61" fill="none" xmlns="http://www.w3.org/2000/svg">
<path d="M30.6806 11C32.494 11 33.894 11.3933 34.8806 12.18C35.8673 12.9667 36.3606 14.0733 36.3606 15.5C36.3606 16.6733 36.074 17.7 35.5006 18.58C34.9406 19.46 34.134 20.14 33.0806 20.62C32.0406 21.1 30.8273 21.34 29.4406 21.34H26.6406L25.9206 25H21.9606L24.7606 11H30.6806ZM29.6206 18.22C30.5006 18.22 31.174 18.0133 31.6406 17.6C32.1206 17.1867 32.3606 16.6 32.3606 15.84C32.3606 15.2667 32.1673 14.84 31.7806 14.56C31.4073 14.2667 30.8673 14.12 30.1606 14.12H28.0806L27.2606 18.22H29.6206ZM42.6914 14.06L42.2314 16.42H48.4514L47.8714 19.38H41.6314L41.1314 21.94H48.4714L47.8314 25H36.6114L39.4114 11H50.3714L49.7514 14.06H42.6914ZM60.4675 17.88L63.4475 25H59.2475L57.1475 19.64H55.1475L54.0675 25H50.1075L52.9075 11H56.8675L55.7875 16.44H57.4675L61.8875 11H66.2875L60.4675 17.88ZM81.0256 11L78.2256 25H74.3256L76.4856 14.14H72.4856L71.7856 17.2C71.3056 19.2667 70.8056 20.8733 70.2856 22.02C69.7656 23.1667 69.1456 23.9933 68.4256 24.5C67.719 24.9933 66.819 25.24 65.7256 25.24C65.1123 25.24 64.5256 25.16 63.9656 25L64.8256 21.76C64.9856 21.8 65.159 21.82 65.3456 21.82C65.8123 21.82 66.219 21.6533 66.5656 21.32C66.9123 20.9867 67.2323 20.4467 67.5256 19.7C67.819 18.94 68.119 17.9 68.4256 16.58L69.7456 11H81.0256ZM91.6003 22.28H85.6403L84.0203 25H79.8403L88.8203 11H92.7203L96.1003 25H92.1603L91.6003 22.28ZM91.0003 19.36L90.0603 14.82L87.3803 19.36H91.0003ZM116.765 11L113.985 25H110.345L111.785 17.6L107.125 23.62H105.365L102.825 17.6L101.365 25H97.7247L100.525 11H103.745L107.025 19.1L113.385 11H116.765ZM133.083 11L130.283 25H126.323L127.403 19.56H122.023L120.943 25H116.983L119.783 11H123.743L122.703 16.24H128.083L129.123 11H133.083ZM143.671 22.28H137.711L136.091 25H131.911L140.891 11H144.791L148.171 25H144.231L143.671 22.28ZM143.071 19.36L142.131 14.82L139.451 19.36H143.071ZM163.633 11.02L160.833 25H156.933L157.653 21.48H155.593L152.593 25H148.273L152.013 20.82C151.32 20.46 150.793 19.96 150.433 19.32C150.073 18.68 149.893 17.92 149.893 17.04C149.893 15.84 150.193 14.7867 150.793 13.88C151.407 12.9733 152.267 12.2733 153.373 11.78C154.48 11.2733 155.753 11.02 157.193 11.02H163.633ZM156.773 14.14C155.88 14.14 155.187 14.3667 154.693 14.82C154.213 15.26 153.973 15.8867 153.973 16.7C153.973 17.8467 154.613 18.42 155.893 18.42H158.253L159.113 14.14H156.773ZM29.46 35L26.68 49H23.04L24.48 41.6L19.82 47.62H18.06L15.52 41.6L14.06 49H10.42L13.22 35H16.44L19.72 43.1L26.08 35H29.46ZM40.0378 46.28H34.0778L32.4578 49H28.2778L37.2578 35H41.1578L44.5378 49H40.5978L40.0378 46.28ZM39.4378 43.36L38.4978 38.82L35.8178 43.36H39.4378ZM62.2622 35L59.4622 49H55.5022L56.5822 43.56H51.2022L50.1222 49H46.1622L48.9622 35H52.9222L51.8822 40.24H57.2622L58.3022 35H62.2622ZM78.5903 35L70.6303 45.94C69.8036 47.0733 68.9103 47.9267 67.9503 48.5C66.9903 49.06 65.997 49.34 64.9703 49.34C64.1036 49.34 63.257 49.1533 62.4303 48.78L63.7103 45.96C64.1236 46.08 64.517 46.14 64.8903 46.14C65.7703 46.14 66.5436 45.74 67.2103 44.94L67.2903 44.86L63.9103 35H68.0103L69.9303 41.7L74.6503 35H78.5903ZM96.2327 41.04C96.2327 42.4267 95.886 43.64 95.1927 44.68C94.4993 45.7067 93.506 46.52 92.2127 47.12C90.9193 47.7067 89.3793 48.0467 87.5927 48.14L87.2927 49.66H83.6527L83.9727 48.1C81.9593 47.9133 80.426 47.3867 79.3727 46.52C78.3193 45.64 77.7927 44.44 77.7927 42.92C77.7927 41.5733 78.126 40.3867 78.7927 39.36C79.4727 38.32 80.4593 37.4933 81.7527 36.88C83.0593 36.2533 84.6193 35.8867 86.4327 35.78L86.7127 34.34H90.3527L90.0527 35.8C92.066 35.96 93.5993 36.4867 94.6527 37.38C95.706 38.2733 96.2327 39.4933 96.2327 41.04ZM88.2127 45.04C89.5993 44.9067 90.6327 44.5533 91.3127 43.98C91.9927 43.3933 92.3327 42.5867 92.3327 41.56C92.3327 40.7467 92.0993 40.1267 91.6327 39.7C91.1793 39.2733 90.4527 39 89.4527 38.88L88.2127 45.04ZM81.6927 42.38C81.6927 43.1667 81.9193 43.7733 82.3727 44.2C82.826 44.6133 83.5593 44.8867 84.5727 45.02L85.8127 38.88C84.3993 39.04 83.3593 39.4067 82.6927 39.98C82.026 40.5533 81.6927 41.3533 81.6927 42.38ZM107.206 46.28H101.246L99.6258 49H95.4458L104.426 35H108.326L111.706 49H107.766L107.206 46.28ZM106.606 43.36L105.666 38.82L102.986 43.36H106.606ZM123.69 41.88L126.67 49H122.47L120.37 43.64H118.37L117.29 49H113.33L116.13 35H120.09L119.01 40.44H120.69L125.11 35H129.51L123.69 41.88ZM141.302 38.14H136.942L134.822 49H130.922L133.042 38.14H128.822L129.442 35H141.922L141.302 38.14ZM156.442 35L148.482 45.94C147.655 47.0733 146.762 47.9267 145.802 48.5C144.842 49.06 143.849 49.34 142.822 49.34C141.955 49.34 141.109 49.1533 140.282 48.78L141.562 45.96C141.975 46.08 142.369 46.14 142.742 46.14C143.622 46.14 144.395 45.74 145.062 44.94L145.142 44.86L141.762 35H145.862L147.782 41.7L152.502 35H156.442ZM163.571 35C165.385 35 166.785 35.3933 167.771 36.18C168.758 36.9667 169.251 38.0733 169.251 39.5C169.251 40.6733 168.965 41.7 168.391 42.58C167.831 43.46 167.025 44.14 165.971 44.62C164.931 45.1 163.718 45.34 162.331 45.34H159.531L158.811 49H154.851L157.651 35H163.571ZM162.511 42.22C163.391 42.22 164.065 42.0133 164.531 41.6C165.011 41.1867 165.251 40.6 165.251 39.84C165.251 39.2667 165.058 38.84 164.671 38.56C164.298 38.2667 163.758 38.12 163.051 38.12H160.971L160.151 42.22H162.511ZM179.159 46.28H173.199L171.579 49H167.399L176.379 35H180.279L183.659 49H179.719L179.159 46.28ZM178.559 43.36L177.619 38.82L174.939 43.36H178.559Z" fill="#E5E5E5"/>
<rect x="0.5" y="0.5" width="191" height="60" stroke="white"/>
</svg>
